<svg width="1474" height="378" viewBox="0 0 1474 378" fill="none" xmlns="http://www.w3.org/2000/svg">
<g clip-path="url(#clip0_1155_505)">
<rect width="1474" height="378" fill="white"/>
<path d="M176.999 18.9978L678 284.999" stroke="#007BFF" stroke-width="8" stroke-linecap="round"/>
<path d="M946 53L855 285.5" stroke="#CCE5FF" stroke-width="8" stroke-linecap="round"/>
<path d="M1320 170.5L1449 285.999" stroke="#007BFF" stroke-width="8" stroke-linecap="round"/>
<path d="M854.5 285.999L1449 285.999" stroke="#274867" stroke-width="8" stroke-linecap="round"/>
<path d="M176.499 18.4994L24.9998 285" stroke="#CCE5FF" stroke-width="8" stroke-linecap="round"/>
<path d="M678 285L24.5004 285.001" stroke="#274867" stroke-width="8" stroke-linecap="round"/>
<path d="M67.0667 147H73.3667V126.72C73.3667 119.16 68.0867 115.68 60.1667 115.68C52.9667 115.68 47.8667 119.16 47.5667 124.92H54.2867C54.5267 122.58 56.5067 121.02 60.4067 121.02C64.9067 121.02 66.8267 123.24 66.8267 126.6V127.5H57.8267C49.0067 127.5 45.7067 132.96 45.7067 137.76C45.7067 143.04 49.6067 147.78 56.6267 147.78C60.8867 147.78 63.7667 146.52 65.6267 144.18H67.0667V147ZM58.7267 142.26C54.8267 142.26 52.5467 140.46 52.5467 137.34C52.5467 134.16 54.7067 132.3 59.0267 132.3H66.8267V134.64C66.8267 138.9 63.2867 142.26 58.7267 142.26Z" fill="#274867"/>
<path d="M880.067 147H886.367V126.72C886.367 119.16 881.087 115.68 873.167 115.68C865.967 115.68 860.867 119.16 860.567 124.92H867.287C867.527 122.58 869.507 121.02 873.407 121.02C877.907 121.02 879.827 123.24 879.827 126.6V127.5H870.827C862.007 127.5 858.707 132.96 858.707 137.76C858.707 143.04 862.607 147.78 869.627 147.78C873.887 147.78 876.767 146.52 878.627 144.18H880.067V147ZM871.727 142.26C867.827 142.26 865.547 140.46 865.547 137.34C865.547 134.16 867.707 132.3 872.027 132.3H879.827V134.64C879.827 138.9 876.287 142.26 871.727 142.26Z" fill="#274867"/>
<path d="M474.144 129.22C473.484 132.28 471.324 134.02 467.484 134.02C461.484 134.02 459.084 129.22 459.084 123.64C459.084 118.18 461.424 113.44 467.484 113.44C471.084 113.44 473.004 115.12 473.904 117.76H480.624C479.724 111.76 474.924 107.68 467.424 107.68C457.944 107.68 452.304 114.34 452.304 123.7C452.304 133.06 457.944 139.78 467.424 139.78C474.804 139.78 479.904 135.52 480.864 129.22H474.144Z" fill="#274867"/>
<path d="M1417.14 204.22C1416.48 207.28 1414.32 209.02 1410.48 209.02C1404.48 209.02 1402.08 204.22 1402.08 198.64C1402.08 193.18 1404.42 188.44 1410.48 188.44C1414.08 188.44 1416 190.12 1416.9 192.76H1423.62C1422.72 186.76 1417.92 182.68 1410.42 182.68C1400.94 182.68 1395.3 189.34 1395.3 198.7C1395.3 208.06 1400.94 214.78 1410.42 214.78C1417.8 214.78 1422.9 210.52 1423.86 204.22H1417.14Z" fill="#274867"/>
<path d="M311.267 326.68C306.767 326.68 304.127 328.24 302.507 330.4H301.067V314.38H294.287V358H300.827V355.06H302.267C303.947 357.16 306.707 358.78 311.267 358.78C319.547 358.78 324.467 351.82 324.467 342.7C324.467 333.52 319.487 326.68 311.267 326.68ZM309.347 353.02C303.407 353.02 300.887 348.16 300.887 342.7C300.887 337.36 303.407 332.44 309.347 332.44C314.927 332.44 317.687 336.82 317.687 342.7C317.687 348.64 314.927 353.02 309.347 353.02Z" fill="#274867"/>
<path d="M1158.27 326.68C1153.77 326.68 1151.13 328.24 1149.51 330.4H1148.07V314.38H1141.29V358H1147.83V355.06H1149.27C1150.95 357.16 1153.71 358.78 1158.27 358.78C1166.55 358.78 1171.47 351.82 1171.47 342.7C1171.47 333.52 1166.49 326.68 1158.27 326.68ZM1156.35 353.02C1150.41 353.02 1147.89 348.16 1147.89 342.7C1147.89 337.36 1150.41 332.44 1156.35 332.44C1161.93 332.44 1164.69 336.82 1164.69 342.7C1164.69 348.64 1161.93 353.02 1156.35 353.02Z" fill="#274867"/>
<path d="M1391.04 81.9703C1389.09 80.0177 1385.92 80.0177 1383.97 81.9703C1382.02 83.9229 1382.02 87.0888 1383.97 89.0414L1391.04 81.9703ZM1424.98 130.054C1426.94 132.006 1430.1 132.006 1432.05 130.054C1434.01 128.101 1434.01 124.935 1432.05 122.983L1424.98 130.054ZM1383.97 89.0414L1424.98 130.054L1432.05 122.983L1391.04 81.9703L1383.97 89.0414Z" fill="#FF0000"/>
<path d="M1432.05 89.0414C1434.01 87.0888 1434.01 83.9229 1432.05 81.9703C1430.1 80.0177 1426.93 80.0177 1424.98 81.9703L1432.05 89.0414ZM1383.97 122.983C1382.02 124.935 1382.02 128.101 1383.97 130.054C1385.92 132.006 1389.09 132.006 1391.04 130.054L1383.97 122.983ZM1424.98 81.9703L1383.97 122.983L1391.04 130.054L1432.05 89.0414L1424.98 81.9703Z" fill="#FF0000"/>
<path d="M25 342.5L50 366L99.5 316" stroke="#07CB32" stroke-width="10" stroke-linecap="round" stroke-linejoin="round"/>
</g>
<defs>
<clipPath id="clip0_1155_505">
<rect width="1474" height="378" fill="white"/>
</clipPath>
</defs>
</svg>
